#!OML:ASF E:\Mandelcareful walks\Project 1\Capture day 1\Session 1\Subject1.ASF
:FULLY-SPECIFIED
:DEGREES
94
root -19.9992 16.7963 5.81701 176.336 84.2364 171.737
lowerback -6.69189 -0.220154 -3.10951
upperback 1.50067 -0.0685823 0.861598
thorax 5.32605 -0.147187 2.63803
lowerneck -23.0112 2.44378 -0.934213
upperneck 32.1081 4.82047 -0.359762
head 15.0411 2.09296 1.00617
rclavicle -2.56929e-014 -2.24627e-014
rhumerus -27.4422 -13.0628 -82.7394
rradius 24.3732
rwrist -3.87134
rhand -9.8493 -31.056
rfingers 7.12502
rthumb 16.1288 -60.4049
lclavicle -2.56929e-014 -2.24627e-014
lhumerus -25.9607 14.532 87.7169
lradius 21.0179
lwrist -0.399217
lhand -21.7396 -13.3439
lfingers 7.12502
lthumb 4.66025 16.5849
rfemur -3.02432 1.0696 12.4205
rtibia 13.8483
rfoot -16.7159 -20.6217
rtoes 5.46565
lfemur -7.52824 -4.72626 -15.8625
ltibia 24.3816
lfoot -22.2231 18.1932
ltoes -1.19716
95
root -20.022 16.7963 5.81038 174.795 84.3964 170.378
lowerback -6.16822 -0.115313 -3.20347
upperback 1.61465 0.0653384 0.835512
thorax 5.13865 -0.0815489 2.67652
lowerneck -23.0705 2.39007 -0.905597
upperneck 32.0325 4.70018 -0.313712
head 15.019 2.05031 0.996185
rclavicle 2.67117e-015 -9.34288e-015
rhumerus -27.284 -13.2436 -82.6677
rradius 24.4414
rwrist -3.83903
rhand -9.76543 -31.2163
rfingers 7.12502
rthumb 16.2095 -60.5586
lclavicle 2.67117e-015 -9.34288e-015
lhumerus -25.9132 14.2285 87.9096
lradius 21.3517
lwrist -0.0357324
lhand -21.7881 -13.0683
lfingers 7.12502
lthumb 4.61336 16.8614
rfemur -3.00376 1.08168 12.2514
rtibia 13.9261
rfoot -16.63 -20.4912
rtoes 5.91993
lfemur -7.38277 -4.8472 -16.0407
ltibia 24.3835
lfoot -22.2414 18.37
ltoes -0.702806
96
root -20.0455 16.8003 5.80105 180.641 84.7613 176.295
lowerback -5.78288 0.0385511 -2.49337
upperback 1.71916 0.198765 0.978666
thorax 5.01928 0.0055293 2.43735
lowerneck -23.3124 2.35358 -0.868113
upperneck 32.0238 4.62223 -0.312859
head 15.0703 2.01551 0.978878
rclavicle 0 -3.37934e-015
rhumerus -27.1322 -13.2593 -82.6781
rradius 24.6266
rwrist -3.93204
rhand -9.7256 -31.4139
rfingers 7.12502
rthumb 16.2479 -60.7531
lclavicle 0 -3.37934e-015
lhumerus -25.757 13.9368 88.0426
lradius 21.5451
lwrist 0.130226
lhand -21.6715 -13.0918
lfingers 7.12502
lthumb 4.72596 16.8355
rfemur -3.11913 1.13949 12.8493
rtibia 13.8763
rfoot -16.3348 -20.324
rtoes 5.93843
lfemur -7.43757 -4.76924 -15.4329
ltibia 24.5129
lfoot -22.4388 18.4487
ltoes -0.220646
97
root -20.0676 16.7982 5.78856 176.358 85.24 172.254
lowerback -5.15786 0.158637 -2.68674
upperback 1.84195 0.363589 0.893337
thorax 4.78206 0.0853639 2.46901
lowerneck -23.3811 2.38442 -0.687823
upperneck 31.9684 4.68155 -0.573616
head 15.0748 2.02158 0.851325
rclavicle 5.71506e-015 1.64991e-014
rhumerus -27.0989 -12.8583 -82.7562
rradius 24.9414
rwrist -4.3084
rhand -9.76834 -31.3398
rfingers 7.12502
rthumb 16.2067 -60.6824
lclavicle 5.71506e-015 1.64991e-014
lhumerus -25.7239 13.8759 88.0603
lradius 21.7095
lwrist 0.162334
lhand -21.3805 -13.2346
lfingers 7.12502
lthumb 5.00693 16.6862
rfemur -2.99224 0.771706 12.3607
rtibia 13.6999
rfoot -15.7465 -19.5352
rtoes 5.50892
lfemur -7.26243 -4.23601 -15.8615
ltibia 24.7212
lfoot -22.5858 18.2871
ltoes -0.139867
98
root -20.0946 16.7971 5.7771 176.671 85.4031 172.7
lowerback -4.53836 0.180659 -2.51611
upperback 1.93129 0.367407 0.908237
thorax 4.52357 0.0958925 2.38386
lowerneck -23.3613 2.4161 -0.602515
upperneck 31.7414 4.70108 -0.66936
head 14.9718 2.02482 0.795341
rclavicle 1.30701e-014 5.1684e-015
rhumerus -26.9939 -12.4226 -82.8397
rradius 25.2154
rwrist -4.72584
rhand -9.86271 -30.9092
rfingers 7.12502
rthumb 16.1158 -60.2591
lclavicle 1.30701e-014 5.1684e-015
lhumerus -25.696 13.8713 88.0755
lradius 21.9198
lwrist 0.309731
lhand -21.1094 -13.5068
lfingers 7.12502
lthumb 5.2687 16.4077
rfemur -2.88138 0.912822 12.3792
rtibia 13.4687
rfoot -15.5154 -19.5138
rtoes 5.6396
lfemur -7.39124 -3.34847 -15.7751
ltibia 24.9987
lfoot -22.273 17.7148
ltoes -0.575449
99
root -20.1213 16.8013 5.76584 178.958 85.573 174.926
lowerback -4.14595 0.205572 -2.22852
upperback 2.04317 0.374451 0.959424
thorax 4.41762 0.108224 2.27304
lowerneck -23.4329 2.43791 -0.764849
upperneck 31.4972 4.68031 -0.430589
head 14.8621 2.02769 0.91266
rclavicle -1.31446e-014 -5.56597e-015
rhumerus -26.6514 -12.1173 -82.9124
rradius 25.306
rwrist -4.98654
rhand -9.88576 -30.8016
rfingers 7.12502
rthumb 16.0937 -60.1533
lclavicle -1.31446e-014 -5.56597e-015
lhumerus -25.5274 13.7419 88.1648
lradius 22.1023
lwrist 0.610399
lhand -20.982 -13.8107
lfingers 7.12502
lthumb 5.39172 16.1008
rfemur -3.10563 1.15368 12.5531
rtibia 13.4763
rfoot -15.3889 -19.616
rtoes 5.73931
lfemur -7.70964 -2.44059 -15.5291
ltibia 25.2038
lfoot -21.9316 17.1704
ltoes -1.03087
100
root -20.1482 16.8015 5.75254 176.913 85.683 172.865
lowerback -3.70935 0.20881 -2.30273
upperback 2.18026 0.378052 0.923668
thorax 4.31221 0.109334 2.27519
lowerneck -23.5526 2.43809 -0.829136
upperneck 31.4301 4.66085 -0.337085
head 14.8525 2.02138 0.958468
rclavicle -2.26118e-015 9.93923e-015
rhumerus -26.3641 -11.8342 -82.9587
rradius 25.4306
rwrist -5.20284
rhand -10.0391 -30.9846
rfingers 7.12502
rthumb 15.946 -60.3482
lclavicle -2.26118e-015 9.93923e-015
lhumerus -25.3523 13.3229 88.3234
lradius 22.3029
lwrist 1.09911
lhand -21.0825 -13.7992
lfingers 7.12502
lthumb 5.29471 16.1147
rfemur -3.22616 1.1256 12.3057
rtibia 13.4394
rfoot -15.2069 -19.4589
rtoes 5.95054
lfemur -7.97374 -1.75783 -15.6982
ltibia 25.4675
lfoot -21.6648 16.702
ltoes -1.27622
101
root -20.1733 16.7975 5.73126 173.04 85.7547 169.04
lowerback -3.20781 0.162134 -2.45242
upperback 2.2761 0.316711 0.877904
thorax 4.13062 0.0776963 2.30434
lowerneck -23.4918 2.46445 -0.752221
upperneck 31.4377 4.72593 -0.492227
head 14.8505 2.03595 0.893097
rclavicle -1.00635e-014 1.78906e-015
rhumerus -26.2679 -11.3569 -82.9587
rradius 25.664
rwrist -5.44216
rhand -10.3244 -31.0604
rfingers 7.12502
rthumb 15.6712 -60.4457
lclavicle -1.00635e-014 1.78906e-015
lhumerus -25.3789 12.8611 88.537
lradius 22.6192
lwrist 1.70638
lhand -21.3803 -13.491
lfingers 7.12502
lthumb 5.00711 16.4299
rfemur -3.21339 0.582729 11.8392
rtibia 13.2995
rfoot -14.885 -18.8519
rtoes 5.83299
lfemur -8.16151 -1.23964 -16.0633
ltibia 25.814
lfoot -21.5385 16.309
ltoes -1.21302
102
root -20.2017 16.8004 5.71035 174.267 85.9152 170.222
lowerback -2.70377 0.0899423 -2.33466
upperback 2.31688 0.200693 1.01913
thorax 3.89378 0.0251796 2.37385
lowerneck -23.382 2.52508 -0.763911
upperneck 31.4355 4.8714 -0.628671
head 14.83 2.07768 0.864871
rclavicle 6.95746e-015 -5.96354e-016
rhumerus -26.0501 -10.8262 -82.8875
rradius 25.7853
rwrist -5.54364
rhand -10.5475 -31.1975
rfingers 7.12502
rthumb 15.4564 -60.5996
lclavicle 6.95746e-015 -5.96354e-016
lhumerus -25.4026 12.6174 88.806
lradius 22.8387
lwrist 2.19999
lhand -21.7328 -13.1642
lfingers 7.12502
lthumb 4.66674 16.7644
rfemur -3.43566 0.284262 11.8388
rtibia 13.2798
rfoot -14.5919 -18.495
rtoes 5.18277
lfemur -8.50546 -0.78931 -15.9887
ltibia 26.1572
lfoot -21.5351 16.0215
ltoes -0.908772
103
root -20.2346 16.8036 5.69447 184.671 86.0371 180.537
lowerback -2.18437 0.0664902 -1.67336
upperback 2.38567 0.127186 1.33212
thorax 3.67476 0.00631883 2.31897
lowerneck -23.4195 2.52198 -0.759869
upperneck 31.4365 4.9187 -0.77876
head 14.845 2.07424 0.812087
rclavicle -3.67752e-015 5.96354e-015
rhumerus -25.735 -10.5381 -82.7693
rradius 25.8938
rwrist -5.62618
rhand -10.6676 -31.2661
rfingers 7.12502
rthumb 15.3407 -60.6771
lclavicle -3.67752e-015 5.96354e-015
lhumerus -25.2516 12.2155 89.0748
lradius 22.9421
lwrist 2.42977
lhand -21.7559 -13.0966
lfingers 7.12502
lthumb 4.64445 16.8325
rfemur -3.71438 0.551288 12.6108
rtibia 13.2448
rfoot -14.5211 -18.7097
rtoes 5.10961
lfemur -9.04221 -0.144368 -15.1743
ltibia 26.5615
lfoot -21.3919 15.6063
ltoes -1.13682
104
root -20.2599 16.7978 5.66935 183.569 86.166 179.522
lowerback -1.61051 0.104567 -1.60107
upperback 2.59517 0.174817 1.28444
thorax 3.56461 0.0341532 2.22969
lowerneck -23.5211 2.45905 -0.668645
upperneck 31.4468 4.81893 -0.869703
head 14.8784 2.0262 0.741579
rclavicle -2.37548e-014 -5.56597e-015
rhumerus -25.4974 -10.3814 -82.7692
rradius 26.2339
rwrist -6.02102
rhand -10.5845 -31.1826
rfingers 7.12502
rthumb 15.4207 -60.5875
lclavicle -2.37548e-014 -5.56597e-015
lhumerus -25.076 11.471 89.2617
lradius 23.1744
lwrist 2.45591
lhand -21.5719 -13.1276
lfingers 7.12502
lthumb 4.82216 16.7975
rfemur -3.68501 0.237036 12.3922
rtibia 13.153
rfoot -14.2487 -18.341
rtoes 4.75808
lfemur -9.30785 0.677447 -15.3219
ltibia 27.0197
lfoot -21.213 15.1663
ltoes -2.11188
